PathFileType	4	(X/Y/Z)	s06c0402.trc
DataRate	CameraRate	NumFrames	NumMarkers	Units	OrigDataRate	OrigDataStartFrame	OrigNumFrames
200	200	6	48	mm	200	1750	2000
Frame#	Time	racr			lacr			c7			jug			rlel			rdr			llel			ldr			s2			lic			ric			lasi			rasi			rpsi			lpsi			rgt			lgt			rth1			rth2			rth3			rth4			rlfc			rmfc			rsh1			rsh2			rsh3			rsh4			rlmal			rcal			rtoe			rmt5			lth1			lth2			lth4			lth3			llfc			lmfc			llmal			lcal			lmt5			lsh1			lsh2			lsh3			lsh4			ltoe			SBIKE			LBIKE			RBIKE			
		X1	Y1	Z1	X2	Y2	Z2	X3	Y3	Z3	X4	Y4	Z4	X5	Y5	Z5	X6	Y6	Z6	X7	Y7	Z7	X8	Y8	Z8	X9	Y9	Z9	X10	Y10	Z10	X11	Y11	Z11	X12	Y12	Z12	X13	Y13	Z13	X14	Y14	Z14	X15	Y15	Z15	X16	Y16	Z16	X17	Y17	Z17	X18	Y18	Z18	X19	Y19	Z19	X20	Y20	Z20	X21	Y21	Z21	X22	Y22	Z22	X23	Y23	Z23	X24	Y24	Z24	X25	Y25	Z25	X26	Y26	Z26	X27	Y27	Z27	X28	Y28	Z28	X29	Y29	Z29	X30	Y30	Z30	X31	Y31	Z31	X32	Y32	Z32	X33	Y33	Z33	X34	Y34	Z34	X35	Y35	Z35	X36	Y36	Z36	X37	Y37	Z37	X38	Y38	Z38	X39	Y39	Z39	X40	Y40	Z40	X41	Y41	Z41	X42	Y42	Z42	X43	Y43	Z43	X44	Y44	Z44	X45	Y45	Z45	X46	Y46	Z46	X47	Y47	Z47	X48	Y48	Z48	
1750	8.7500	561.217731	1325.784864	-71.158758	576.433768	1308.783931	-392.195427	570.544755	1402.392786	-230.445181	549.028447	1244.077084	-223.917318	513.531418	1091.055670	59.972974	683.238142	945.607456	-37.062753	507.213185	1067.481703	-504.350429	657.060612	918.508210	-402.238111	18.620714	1184.802305	-219.229690	183.894445	1146.331598	-388.979007	178.483858	1134.172668	-55.742808	192.233297	1092.734869	-351.350124	200.990580	1085.830565	-95.860749	58.633146	1218.489632	-186.764503	56.458522	1220.457632	-247.007221	130.756485	1051.954382	-29.402772	147.785719	1095.259772	-419.452274	208.047161	943.069609	-19.039842	270.802496	877.950219	-24.795890	292.232200	793.514541	-32.011129	300.952940	897.453477	-39.728683	312.240055	693.650628	-52.142417	297.451426	673.989247	-162.529611	232.803818	600.600297	-26.829093	186.567531	529.396945	-46.401130	111.263258	483.887901	-47.076665	202.383285	516.996861	-82.008504	42.649886	438.391202	-52.447109	-19.912161	460.070098	-98.933779	149.518921	241.714389	-99.574298	70.805038	301.440747	-30.198617	206.095601	993.737584	-435.947027	283.302386	953.047590	-434.975763	307.993155	978.788615	-422.671493	330.404594	876.928975	-432.909008	382.653897	772.208231	-408.218633	394.412413	756.803782	-295.167526	275.007572	418.808301	-380.948115	202.873677	391.085500	-331.729215	394.514525	347.430671	-407.571914	354.719182	666.348061	-424.850642	351.354910	582.398254	-402.174147	305.993954	506.236980	-394.604757	377.883951	580.330460	-372.973623	481.800951	353.143716	-350.892055	-155.818670	855.320031	-221.967557	-49.142537	79.827150	-415.329854	-48.946890	79.801097	-17.885797	
1751	8.7550	559.684779	1326.116045	-70.914183	574.847779	1309.406339	-391.954118	569.011142	1402.824205	-230.137740	549.421394	1244.544138	-223.635248	513.124169	1090.997909	59.555841	683.231278	945.560103	-37.183857	507.133498	1067.693080	-504.025715	657.088562	918.493226	-402.155691	17.625356	1184.092516	-220.006009	183.433601	1146.226110	-389.383786	177.146238	1133.866188	-55.983047	191.968550	1092.779191	-351.935000	199.793118	1085.699101	-95.982293	57.139332	1217.953735	-187.375703	55.405349	1219.944785	-247.766999	129.489962	1051.625483	-29.834170	147.586247	1094.942105	-419.956754	206.903461	942.564737	-19.148638	269.638076	877.380279	-24.490135	290.632631	792.922966	-31.756976	299.803126	896.908362	-39.448961	311.310437	692.910958	-51.573234	296.608930	672.935158	-161.798387	231.969191	599.562385	-26.506546	185.937590	528.102340	-46.174147	110.842676	482.450603	-46.931345	201.824057	515.961219	-81.812909	42.327072	436.797378	-52.283619	-20.213341	458.355501	-98.817601	149.705557	240.452063	-99.601479	70.897551	299.924377	-30.148024	205.942500	993.748938	-436.142216	283.397964	953.618539	-435.180659	307.975994	979.445704	-423.057492	331.053563	877.706066	-433.093014	384.203752	773.680161	-408.437670	395.303439	758.820643	-295.013475	275.324867	420.625092	-380.912692	203.178081	393.019994	-331.480429	394.624171	348.876688	-407.510604	356.044109	667.837900	-424.761972	352.374771	584.008998	-402.208114	306.727643	507.927748	-394.570864	378.737840	581.816343	-372.737444	481.909073	354.351610	-350.869901	-155.816357	855.321700	-221.959347	-49.135637	79.824302	-415.329393	-49.156546	79.906424	-17.898530	
1752	8.7600	558.120946	1326.499750	-70.751674	573.560877	1310.162250	-391.753649	567.485864	1403.322250	-229.796136	546.342956	1244.996737	-223.590153	512.700508	1090.934518	59.051666	683.241422	945.511497	-37.277622	507.121961	1067.989654	-503.591992	657.113836	918.506387	-402.084693	16.603862	1183.348062	-220.952879	182.959540	1146.066069	-389.823889	175.717408	1133.632606	-56.208918	191.719765	1092.806649	-352.326478	198.631414	1085.449196	-96.192503	56.220924	1217.299358	-188.201607	54.460060	1219.319254	-248.430454	128.277694	1051.332452	-30.182186	147.343151	1094.703014	-420.440629	205.675284	942.149674	-19.444030	268.831392	876.721520	-24.612883	289.366671	792.395694	-31.395823	298.664359	896.290293	-39.207497	310.250042	692.194691	-51.141840	295.511479	672.030889	-161.392789	231.116044	598.262000	-26.106801	185.155110	526.880808	-46.000678	110.190435	481.011255	-46.850580	201.058000	514.819605	-81.667686	41.819195	435.343916	-52.216628	-20.798073	456.712288	-98.737613	149.939900	239.401369	-99.583571	70.913931	298.601083	-30.165370	205.749813	993.843270	-436.309790	283.448005	954.302599	-435.378145	307.890758	980.359445	-423.376526	331.635578	878.739743	-433.277532	385.720185	775.069273	-408.527968	396.288236	760.727130	-294.971413	275.774902	422.496393	-380.910275	203.625781	395.118564	-331.303612	394.743938	350.380623	-407.513802	357.354502	669.460623	-424.782161	353.422337	585.575439	-402.119204	307.528188	509.637313	-394.570769	379.626104	583.360955	-372.597502	482.030355	355.349440	-350.815300	-155.840161	855.322033	-221.938341	-49.127097	79.813785	-415.322903	-49.191438	79.856679	-17.877308	
1753	8.7650	556.562320	1326.907426	-70.535801	571.985118	1310.968602	-391.562759	565.960635	1403.786045	-229.595860	546.769796	1245.505270	-223.335084	512.275637	1090.885040	58.534999	683.221876	945.434075	-37.335408	507.143620	1068.307265	-503.190773	657.164764	918.504992	-402.041120	15.668206	1182.775470	-221.620243	182.568207	1145.962893	-390.302646	174.458301	1133.451583	-56.464588	191.402602	1092.867056	-352.767657	197.463009	1085.352297	-96.360973	55.074868	1216.775051	-188.740201	53.341642	1218.731647	-249.049056	127.048310	1051.002711	-30.417041	147.007143	1094.547020	-420.878804	204.604445	941.991725	-18.673984	267.891206	876.216812	-24.546578	288.470138	791.899193	-31.033721	297.603837	895.829758	-39.087976	308.719295	691.314473	-50.778671	294.344788	670.938080	-160.828703	229.990636	597.174588	-25.851471	184.193431	525.726499	-45.916396	109.259740	479.656249	-46.825732	200.094144	513.729626	-81.589665	41.199953	433.898652	-52.150756	-21.586340	455.017124	-98.725817	150.266701	238.511096	-99.580381	70.893700	297.250641	-30.123555	205.527258	994.067885	-436.388568	283.513375	955.057872	-435.510044	307.759421	981.343471	-423.667764	332.256307	879.922656	-433.449351	387.239929	776.657780	-408.600634	397.520811	762.715575	-294.991688	276.331427	424.541500	-381.053473	204.015218	397.476572	-331.275591	394.932328	351.760813	-407.507500	358.662244	671.219033	-424.807891	354.472578	587.333131	-402.058054	308.467290	511.442066	-394.588672	380.641214	585.106552	-372.488497	482.217954	356.335935	-350.768102	-155.746563	855.331685	-221.925257	-49.127960	79.826368	-415.341737	-49.188504	79.875697	-17.878275	
1754	8.7700	554.967943	1327.327632	-70.336504	570.523161	1311.781423	-391.420828	564.410755	1404.286917	-229.325536	545.320937	1245.867597	-223.393818	511.875326	1090.837792	57.985001	683.082096	945.165676	-37.075718	507.194403	1068.695867	-502.807119	657.205243	918.532009	-401.982274	14.720018	1181.949502	-222.356681	181.999233	1145.885061	-390.871489	173.237831	1133.292541	-56.646057	190.940656	1092.952001	-353.269714	196.415041	1085.128767	-96.594760	53.983145	1216.091636	-189.271561	52.302385	1218.150422	-249.652049	125.979421	1050.645214	-30.656479	146.710205	1094.485581	-421.309807	203.635474	941.490048	-18.518154	266.845767	875.597719	-24.474618	287.708271	791.387390	-30.669843	296.513656	895.182245	-39.166361	307.258026	690.383131	-50.443571	292.959379	670.015135	-160.490191	228.720920	595.947401	-25.498851	183.046020	524.588855	-45.776990	108.152737	478.351463	-46.838593	198.942417	512.732486	-81.553895	40.264564	432.489132	-52.190856	-22.534019	453.238903	-98.749517	150.527270	237.848963	-99.623944	70.839280	296.120221	-30.158949	205.277582	994.430014	-436.479454	283.598927	956.022486	-435.618446	307.655488	982.511064	-423.882413	332.951260	881.271727	-433.594758	388.756425	778.275927	-408.657241	399.001408	764.630884	-294.995170	276.999158	426.653935	-381.165640	204.455368	399.856326	-331.321970	395.077753	353.086185	-407.462382	359.989681	672.937966	-424.691876	355.585295	589.133598	-402.089421	309.404885	513.391745	-394.634210	381.695573	586.919317	-372.425392	482.400684	357.079332	-350.696015	-155.683356	855.329025	-221.934933	-49.125708	79.833513	-415.338328	-49.186805	79.859602	-17.889424	
1755	8.7750	553.347965	1327.771874	-70.101814	569.075908	1312.677287	-391.275322	562.892620	1404.823953	-229.222992	543.876033	1246.324773	-223.281690	511.410875	1090.790365	57.429347	683.075377	945.142748	-37.226227	507.226215	1069.214037	-502.357328	657.229003	918.577055	-401.927069	13.753365	1181.282720	-222.909337	181.493360	1145.753997	-391.331378	172.073818	1132.984722	-56.849388	190.459901	1093.052144	-353.716819	195.328167	1084.971673	-96.752424	52.882723	1215.488180	-189.814944	51.307405	1217.545216	-250.187260	125.015146	1050.277343	-30.981171	146.367715	1094.530053	-421.733237	202.713028	941.078398	-18.386763	265.783877	875.101441	-24.322205	286.299789	790.636654	-30.725131	295.552614	894.628158	-39.161272	305.882663	689.373461	-50.153266	291.500666	668.958192	-160.105350	227.268042	594.743507	-25.240105	181.721566	523.308873	-45.729618	106.876311	477.085580	-46.925417	197.582531	511.626811	-81.543981	39.315402	431.165564	-52.229599	-23.991724	451.444105	-99.075845	150.869882	237.262686	-99.686896	70.757167	295.007364	-30.125677	205.073777	994.884137	-436.538263	283.699559	957.140219	-435.734837	307.544708	983.733668	-424.082907	333.614566	882.726946	-433.660009	390.261791	780.042276	-408.725257	400.592002	766.591501	-295.100465	277.630038	428.717906	-381.174135	204.907189	402.258844	-331.405252	395.239701	354.415828	-407.435727	361.350256	674.844183	-424.731861	356.787414	590.987698	-402.067603	310.385381	515.329895	-394.593658	382.795528	588.690740	-372.291157	482.568440	357.792515	-350.675917	-155.672343	855.327397	-221.871901	-49.129419	79.832369	-415.334413	-49.185458	79.866650	-17.915442	
